<svg id="Layer_3" data-name="Layer 3" xmlns="http://www.w3.org/2000/svg" viewBox="0 0 2560 1440"><path d="M2560,2427.27V3044H2160.07c-36.91-23.12-71.3-53-88.52-92.87-32-73.93,4.57-162.2,62.32-218.34s133.33-89.24,202.94-129.75A1021.4,1021.4,0,0,0,2560,2427.27Z" transform="translate(0 -1604)" fill="#6c41ec"/><path d="M427.73,1812.61c-23,27.94-55.5,50-91.6,52.18-33.33,2-65.05-12.88-97.64-20.19-91.21-20.44-192,27-238.49,107.25V1604H455C485.52,1671.24,474.65,1755.52,427.73,1812.61Z" transform="translate(0 -1604)" fill="#6c41ec"/><path d="M50.91,2836.16C46.52,2861.12,24.65,2881,0,2886V2767.45H.05C31.84,2770.76,56.43,2804.67,50.91,2836.16Z" transform="translate(0 -1604)" fill="#6c41ec"/><path d="M2560,1606.52v53.36c-8.45,7.77-20.25,12.09-31.69,10.55-34.51-4.67-33.26-49-11.43-66.43h40.19A37,37,0,0,1,2560,1606.52Z" transform="translate(0 -1604)" fill="#6c41ec"/></svg>