<svg id="Phone" xmlns="http://www.w3.org/2000/svg" viewBox="0 0 200 266.67"><path d="M1138.76,3637.67H1203V3596c-2.41-3.85-5.52-7.43-9.67-9.22-7.71-3.33-16.9.47-22.75,6.49s-9.29,13.89-13.51,21.14A106.61,106.61,0,0,1,1138.76,3637.67Z" transform="translate(-1003 -3371)" fill="#6c41ec"/><path d="M1024.73,3415.56c2.91-2.4,5.21-5.79,5.44-9.55.2-3.47-1.35-6.77-2.11-10.17-2.13-9.5,2.82-20,11.17-24.84H1003v47.39A21.22,21.22,0,0,0,1024.73,3415.56Z" transform="translate(-1003 -3371)" fill="#6c41ec"/><path d="M1197.81,3376.3a6.73,6.73,0,0,0,5.19-5.3h-12.35A6.34,6.34,0,0,0,1197.81,3376.3Z" transform="translate(-1003 -3371)" fill="#6c41ec"/><path d="M1003.26,3637.67h5.56a4.15,4.15,0,0,0,1.1-3.3c-.49-3.6-5.1-3.47-6.92-1.2v4.19A3.88,3.88,0,0,0,1003.26,3637.67Z" transform="translate(-1003 -3371)" fill="#6c41ec"/></svg>