<svg id="Layer_1" data-name="Layer 1" xmlns="http://www.w3.org/2000/svg" viewBox="0 0 607.57 108.75"><path d="M31,9H45.49V59.39c0,14.2-9.06,22.12-22.33,22.12C9.68,81.51.22,73.38.22,58.87h14.4c.1,6.07,2.88,9.78,8.33,9.78s8-3.6,8-9.26Z" transform="translate(-0.22 -0.12)" fill="#6c41ec"/><path d="M84.59,22.86c9.15,0,15.43,4.32,18.82,9.06V23.79h14.51v57H103.41V72.45c-3.39,4.94-9.87,9.26-18.93,9.26-14.4,0-25.93-11.83-25.93-29.63S70.08,22.86,84.59,22.86Zm3.7,12.66c-7.72,0-15,5.76-15,16.56s7.3,17,15,17c7.92,0,15.12-6,15.12-16.77S96.21,35.52,88.29,35.52Z" transform="translate(-0.22 -0.12)" fill="#6c41ec"/><path d="M211.76,49.3c0-9-5-13.78-12.66-13.78s-12.76,4.73-12.76,13.78V80.79h-14.4V49.3c0-9-5-13.78-12.66-13.78-7.82,0-12.86,4.73-12.86,13.78V80.79H132v-57h14.4v6.89C150,26,156.09,23,163.19,23c8.85,0,16.16,3.81,20.07,10.91A22.57,22.57,0,0,1,202.81,23c13.68,0,23.35,8.65,23.35,24.39V80.79h-14.4Z" transform="translate(-0.22 -0.12)" fill="#6c41ec"/><path d="M319.59,49.3c0-9-5-13.78-12.66-13.78s-12.76,4.73-12.76,13.78V80.79h-14.4V49.3c0-9-5-13.78-12.66-13.78-7.82,0-12.86,4.73-12.86,13.78V80.79h-14.4v-57h14.4v6.89C257.85,26,263.92,23,271,23c8.85,0,16.16,3.81,20.07,10.91A22.57,22.57,0,0,1,310.64,23C324.32,23,334,31.61,334,47.35V80.79h-14.4Z" transform="translate(-0.22 -0.12)" fill="#6c41ec"/><path d="M427.42,49.3c0-9-5-13.78-12.66-13.78S402,40.25,402,49.3V80.79H387.6V49.3c0-9-5-13.78-12.66-13.78-7.82,0-12.86,4.73-12.86,13.78V80.79h-14.4v-57h14.4v6.89C365.68,26,371.75,23,378.85,23c8.85,0,16.16,3.81,20.07,10.91A22.57,22.57,0,0,1,418.47,23c13.68,0,23.35,8.65,23.35,24.39V80.79h-14.4Z" transform="translate(-0.22 -0.12)" fill="#6c41ec"/><path d="M454,8.56c0-4.73,3.71-8.44,8.85-8.44a8.51,8.51,0,0,1,8.85,8.44A8.51,8.51,0,0,1,462.81,17C457.67,17,454,13.29,454,8.56Zm1.55,15.23h14.4v57h-14.4Z" transform="translate(-0.22 -0.12)" fill="#6c41ec"/><path d="M524,49.3c0-9.15-5-14.09-12.65-14.09-7.82,0-12.87,4.94-12.87,14.09V80.79h-14.4v-57h14.4v7.1c3.71-4.84,9.88-7.93,17.19-7.93,13.27,0,22.74,8.65,22.74,24.39V80.79H524Z" transform="translate(-0.22 -0.12)" fill="#6c41ec"/><path d="M574.45,22.86c8.95,0,15.43,4.12,18.83,9.06V23.79h14.5V81.2c0,15.43-9.46,27.68-28.19,27.68-16.05,0-27.26-8-28.7-21.1h14.3c1.44,5.15,6.79,8.54,14,8.54,7.92,0,14.1-4.52,14.1-15.12V72.35c-3.4,4.94-9.88,9.36-18.83,9.36-14.51,0-26-11.83-26-29.63S559.94,22.86,574.45,22.86Zm3.7,12.66c-7.71,0-15,5.76-15,16.56s7.31,17,15,17c7.92,0,15.13-6,15.13-16.77S586.07,35.52,578.15,35.52Z" transform="translate(-0.22 -0.12)" fill="#6c41ec"/></svg>