<svg id="iPhone_X" data-name="iPhone X" xmlns="http://www.w3.org/2000/svg" viewBox="0 0 1125 2436"><path d="M2014.14,5807H2601V5426.44c-22-35.12-50.42-67.84-88.37-84.23-70.35-30.4-154.34,4.35-207.77,59.3s-84.92,126.87-123.46,193.11A972.13,972.13,0,0,1,2014.14,5807Z" transform="translate(-1476 -3371)" fill="#6c41ec"/><path d="M1674.51,3778c26.58-21.84,47.61-52.81,49.64-87.16,1.88-31.72-12.25-61.9-19.2-92.91-19.45-86.79,25.71-182.75,102-226.94H1476v432.94C1540,3833,1620.18,3822.66,1674.51,3778Z" transform="translate(-1476 -3371)" fill="#6c41ec"/><path d="M2553.59,3419.44c23.75-4.17,42.64-25,47.41-48.44H2488.21v.05C2491.35,3401.3,2523.62,3424.69,2553.59,3419.44Z" transform="translate(-1476 -3371)" fill="#6c41ec"/><path d="M1478.4,5807h50.77c7.4-8,11.51-19.27,10-30.16-4.44-32.83-46.58-31.64-63.21-10.87v38.24A33.59,33.59,0,0,0,1478.4,5807Z" transform="translate(-1476 -3371)" fill="#6c41ec"/></svg>