<svg id="Layer_2" data-name="Layer 2" xmlns="http://www.w3.org/2000/svg" viewBox="0 0 1920 1080"><path d="M1920,617.45V1080h-300c-27.68-17.34-53.47-39.74-66.39-69.65-24-55.45,3.43-121.65,46.74-163.76s100-66.93,152.21-97.31A766.09,766.09,0,0,0,1920,617.45Z" fill="#6c41ec"/><path d="M320.8,156.46c-17.22,20.95-41.63,37.53-68.7,39.13-25,1.48-48.79-9.66-73.23-15.14C110.46,165.12,34.83,200.72,0,260.89V0H341.23C364.14,50.43,356,113.64,320.8,156.46Z" fill="#6c41ec"/><path d="M38.18,924.12C34.89,942.84,18.49,957.73,0,961.49v-88.9H0C23.88,875.07,42.32,900.5,38.18,924.12Z" fill="#6c41ec"/><path d="M1920,1.89v40c-6.34,5.83-15.19,9.07-23.77,7.91-25.88-3.5-24.94-36.71-8.57-49.82h30.14A26.4,26.4,0,0,1,1920,1.89Z" fill="#6c41ec"/></svg>