<svg id="Tablet" xmlns="http://www.w3.org/2000/svg" viewBox="0 0 768 1024"><path d="M521.31,4395H768V4235c-9.25-14.77-21.19-28.52-37.15-35.41-29.57-12.78-64.88,1.83-87.34,24.93s-35.69,53.33-51.89,81.18A408.81,408.81,0,0,1,521.31,4395Z" transform="translate(0 -3371)" fill="#6c41ec"/><path d="M83.45,3542.09c11.17-9.18,20-22.2,20.86-36.64.79-13.33-5.15-26-8.07-39-8.18-36.49,10.81-76.82,42.9-95.4H0v182C26.9,3565.21,60.61,3560.86,83.45,3542.09Z" transform="translate(0 -3371)" fill="#6c41ec"/><path d="M748.07,3391.36c10-1.75,17.92-10.5,19.93-20.36H720.59v0C721.91,3383.74,735.47,3393.57,748.07,3391.36Z" transform="translate(0 -3371)" fill="#6c41ec"/><path d="M1,4395H22.35a15.93,15.93,0,0,0,4.22-12.68C24.7,4368.52,7,4369,0,4377.75v16.08A12.46,12.46,0,0,0,1,4395Z" transform="translate(0 -3371)" fill="#6c41ec"/></svg>